<?xml version="1.0" encoding="UTF-8"?>
<svg width="205px" height="49px" viewBox="0 0 205 49" version="1.1" xmlns="http://www.w3.org/2000/svg" xmlns:xlink="http://www.w3.org/1999/xlink">
    <!-- Generator: Sketch 54.1 (76490) - https://sketchapp.com -->
    <title>Group 21</title>
    <desc>Created with Sketch.</desc>
    <defs>
        <polygon id="path-1" points="0.4096 0.185461905 10.7341128 0.185461905 10.7341128 17 0.4096 17"></polygon>
    </defs>
    <g id="Symbols" stroke="none" stroke-width="1" fill="none" fill-rule="evenodd">
        <g id="MENU" transform="translate(0.000000, -14.000000)">
            <g id="Group-21" transform="translate(0.000000, 14.000000)">
                <path d="M41.2338444,32.7718911 C43.0428598,29.5141385 44,25.8089797 44,22.0569614 C44,9.89468501 34.130279,0 22,0 C9.86931461,0 0,9.89468501 0,22.0569614 C0,26.1818182 1.14287826,30.2039915 3.30386108,33.6874846 C4.56541659,35.7224085 6.1130981,37.5002165 7.87740624,38.9858658 L3.25752817,48 L10.6972104,48 L13.451986,42.389494 C15.0667282,43.0695677 16.7696656,43.5540539 18.5311288,43.8323585 C18.9375577,45.3734242 20.3344541,46.5114984 22,46.5114984 C23.9837798,46.5114984 25.5916128,44.8987173 25.5916128,42.9102454 C25.5916128,40.9213661 23.9837798,39.3098074 22,39.3098074 C20.2316276,39.3098074 18.7660447,40.5913123 18.466913,42.2770312 C16.965158,42.017063 15.5101423,41.5957351 14.1242195,41.0191598 L22.0288565,24.9170197 L33.3613154,48 L40.7412525,48 L22.0288565,11.3693325 L8.59556623,37.5841561 C7.06210974,36.2476422 5.70788842,34.6747935 4.59589876,32.8823165 C2.5844818,29.6400479 1.52126362,25.8965866 1.52126362,22.0569614 C1.52126362,10.7361183 10.7077776,1.52558171 22,1.52558171 C33.291816,1.52558171 42.4783299,10.7361183 42.4783299,22.0569614 C42.4783299,25.5502339 41.5886569,28.9982767 39.9044153,32.0298814 L41.2338444,32.7718911 Z" id="Fill-1" fill="#DA3650"></path>
                <path d="M80.0390856,14.42794 L73.0094288,14.42794 L71.0297939,19 L69,19 L76.5986734,2 L84,19 L81.9702061,19 L80.0390856,14.42794 Z M79.3216478,12.7256374 L76.5493367,6.23192263 L73.7272777,12.7256374 L79.3216478,12.7256374 Z" id="Fill-3" fill="#A1A4BD"></path>
                <path d="M99.2407735,10.4504838 L106,10.4504838 L106,10.8449762 C106,12.6680709 105.465643,14.6393048 104.444186,16.0433537 C103.957894,16.7083434 102.134296,19 98.4139951,19 C93.5991316,19 90,15.279741 90,10.5 C90,5.72025901 93.6229616,2 98.4620589,2 C100.01868,2 101.842278,2.3940831 103.422729,3.62625776 C104.152168,4.19303356 104.833544,4.93209282 105.294795,5.57252901 L103.957894,6.80470367 C103.495431,6.13889558 102.960267,5.54797554 102.42591,5.10437629 C101.648003,4.46434933 100.431868,3.72529007 98.4866966,3.72529007 C94.5713132,3.72529007 91.8482355,6.70567137 91.8482355,10.5245535 C91.8482355,15.0084252 95.3742616,17.2751192 98.437825,17.2751192 C100.601908,17.2751192 102.475186,16.1665303 103.398495,14.5161283 C103.690513,13.9984594 104.006361,13.2102932 104.055637,12.1749555 L99.2407735,12.1749555 L99.2407735,10.4504838 Z" id="Fill-4" fill="#A1A4BD"></path>
                <polygon id="Fill-6" fill="#A1A4BD" points="122 4.67900989 115.711214 4.67900989 115.711214 9.42836865 121.8149 9.42836865 121.8149 11.107777 115.711214 11.107777 115.711214 17.3205917 122 17.3205917 122 19 114 19 114 3 122 3"></polygon>
                <polygon id="Fill-7" fill="#A1A4BD" points="131 19.2552065 131 2 144.131344 15.5308269 144.131344 2.69448072 146 2.69448072 146 20 132.868656 6.46834834 132.868656 19.2552065"></polygon>
                <polygon id="Fill-8" fill="#A1A4BD" points="155 19 157 19 157 3 155 3"></polygon>
                <path d="M167.873003,13.2403376 C167.873003,14.6421722 167.873003,16.1695939 169.215307,17.296135 C169.898234,17.8716732 171.063078,18.2471869 172,18.2471869 C172.936922,18.2471869 174.101766,17.8716732 174.784693,17.296135 C176.126997,16.1695939 176.126997,14.6421722 176.126997,13.2403376 L176.126997,3 L178,3 L178,13.7406067 C178,15.1428571 177.848192,16.4947896 176.936922,17.7469178 C175.924306,19.1233855 174.151808,20 172,20 C169.847771,20 168.075694,19.1233855 167.063078,17.7469178 C166.151808,16.4947896 166,15.1428571 166,13.7406067 L166,3 L167.873003,3 L167.873003,13.2403376 Z" id="Fill-9" fill="#A1A4BD"></path>
                <polygon id="Fill-11" fill="#A1A4BD" points="196.024711 15.85017 189.729265 2.02447315 187 19.3123046 188.869069 19.3123046 190.491434 7.91801496 196.000204 20 201.582087 7.91801496 203.131748 19.3123046 205 19.3123046 202.442692 2"></polygon>
                <g id="Group-17" transform="translate(69.000000, 32.000000)">
                    <g id="Group-14">
                        <mask id="mask-2" fill="white">
                            <use xlink:href="#path-1"></use>
                        </mask>
                        <g id="Clip-13"></g>
                        <path d="M8.65944615,3.6704619 C8.43749744,3.23210476 8.0670359,2.74477143 7.69575385,2.45172381 C7.37493333,2.2084619 6.78252308,1.89112857 5.84344615,1.89112857 C4.21349744,1.89112857 3.07749744,2.89089048 3.07749744,4.4014619 C3.07749744,5.03531905 3.25062564,5.40041429 3.69452308,5.81489048 C4.18929231,6.30262857 4.80590769,6.57058095 5.42334359,6.83812857 L7.00488205,7.52055714 C7.96775385,7.93503333 8.85718974,8.37339048 9.54847179,9.05581905 C10.3882667,9.88436667 10.7341128,10.8351524 10.7341128,12.0045095 C10.7341128,15.0017714 8.48672821,17.000081 5.52262564,17.000081 C4.43626667,17.000081 3.07749744,16.7811048 1.94108718,15.6842 C1.12590769,14.9042238 0.632369231,13.7830333 0.4096,12.8091762 L2.18847179,12.3214381 C2.31154872,13.1742714 2.7070359,13.9052714 3.17636923,14.3926048 C3.89267692,15.099319 4.7070359,15.2944143 5.54724103,15.2944143 C7.7950359,15.2944143 8.85718974,13.7101762 8.85718974,12.0773667 C8.85718974,11.3463667 8.63483077,10.713319 8.0416,10.1770095 C7.57267692,9.73824762 6.93062564,9.44600952 6.06621538,9.05581905 L4.58354872,8.37339048 C3.94190769,8.08115238 3.12713846,7.74034286 2.38580513,7.03362857 C1.66949744,6.3512 1.24939487,5.59591429 1.24939487,4.37717619 C1.24939487,1.86684286 3.20098462,0.185461905 5.86847179,0.185461905 C6.88139487,0.185461905 7.69575385,0.380961905 8.51134359,0.917271429 C9.17801026,1.35562857 9.74621538,2.01336667 10.1166769,2.72008095 L8.65944615,3.6704619 Z" id="Fill-12" fill="#DA3650" mask="url(#mask-2)"></path>
                    </g>
                    <path d="M31.8781949,4.03628571 C31.3596308,3.5242619 30.5694769,2.91509524 29.7292718,2.52530952 C28.8648615,2.13511905 27.8523487,1.89145238 26.8886564,1.89145238 C23.0851692,1.89145238 20.2695795,4.91340476 20.2695795,8.66595238 C20.2695795,13.0766429 23.900759,15.2943333 26.9132718,15.2943333 C28.0246564,15.2943333 29.1114256,14.9774048 29.9762462,14.5390476 C30.9145026,14.0755952 31.5815795,13.4664286 31.8781949,13.1741905 L31.8781949,15.4161667 C30.0505026,16.7077619 28.1485538,17 26.9132718,17 C22.0230154,17 18.3922462,13.3445952 18.3922462,8.64166667 C18.3922462,3.79221429 22.0722462,0.185380952 27.0125538,0.185380952 C28.0004513,0.185380952 29.9024,0.307619048 31.8781949,1.79430952 L31.8781949,4.03628571 Z" id="Fill-15" fill="#DA3650"></path>
                </g>
                <path d="M107,48 L109.029438,48 L111.009128,43.4278314 L118.039388,43.4278314 L119.970562,48 L122,48 L114.598882,31 L107,48 Z M114.549132,35.2320232 L117.321931,41.7254883 L111.726996,41.7254883 L114.549132,35.2320232 Z" id="Fill-18" fill="#DA3650"></path>
                <polygon id="Fill-19" fill="#DA3650" points="130 32 130 48 136 48 136 46.3209483 131.720963 46.3209483 131.720963 32"></polygon>
                <polygon id="Fill-20" fill="#DA3650" points="144 32 144 48 152 48 152 46.3209483 145.710528 46.3209483 145.710528 40.1079789 151.815275 40.1079789 151.815275 38.4285287 145.710528 38.4285287 145.710528 33.6790517 152 33.6790517 152 32"></polygon>
            </g>
        </g>
    </g>
</svg>